<svg width="235" height="235" viewBox="0 0 235 235" fill="none" xmlns="http://www.w3.org/2000/svg">
<circle cx="117.5" cy="117.5" r="117.5" fill="#343A40"/>
<rect x="10.2366" y="58.5905" width="213.56" height="117.819" rx="58.9095" fill="#F8F9FA" stroke="#343A40" stroke-width="5"/>
<path fill-rule="evenodd" clip-rule="evenodd" d="M180.334 93.114C185.675 93.114 190.005 97.4437 190.005 102.785L190.005 102.785C190.005 108.126 185.675 112.456 180.334 112.456C174.993 112.456 170.663 108.126 170.663 102.785L170.663 102.785C170.663 97.4437 174.993 93.114 180.334 93.114Z" fill="#343A40"/>
<path fill-rule="evenodd" clip-rule="evenodd" d="M152.576 120.872C157.917 120.872 162.247 125.201 162.247 130.542L162.247 130.543C162.247 135.884 157.917 140.213 152.576 140.213C147.235 140.213 142.905 135.884 142.905 130.543L142.905 130.542C142.905 125.201 147.235 120.872 152.576 120.872Z" fill="#343A40"/>
<path fill-rule="evenodd" clip-rule="evenodd" d="M76.5298 98.1584C76.5298 94.1527 73.2825 90.9053 69.2767 90.9053C65.271 90.9053 62.0237 94.1527 62.0237 98.1584L62.0237 109.411H50.7716C46.7658 109.411 43.5185 112.658 43.5185 116.664C43.5185 120.669 46.7658 123.917 50.7716 123.917H62.0237V135.169C62.0237 139.175 65.271 142.422 69.2767 142.422C73.2825 142.422 76.5298 139.175 76.5298 135.169V123.917H87.7819C91.7877 123.917 95.035 120.669 95.035 116.664C95.035 112.658 91.7877 109.41 87.7819 109.41H76.5298V98.1584Z" fill="#343A40"/>
<rect x="117.399" y="158.601" width="40.2025" height="40.2025" transform="rotate(45 117.399 158.601)" fill="#343A40"/>
</svg>
